# xmcd
#
# Track frame offsets:
#	150
#	13524
#	26459
#	39037
#	55691
#	71008
#	85540
#	96557
#	112139
#	124549
#	141175
#	160589
#	173320
#	188547
#	199644
#	214366
#	232193
#	247313
#	262534
#	273698
#	289080
#	302491
#
# Disc length: 4276 seconds
#
# Revision: 3
# Processed by: cddbd v1.4PL0 Copyright (c) Steve Scherf et al.
# Submitted via: MusicManager 7.0.0.0 
#
DISCID=2910b216
DTITLE=Various Artist - Contempory Country - The Mid 80s - Pure Gold
DYEAR=1992
DGENRE=
TTITLE0=Randy Travis - Diggin Up Bones
TTITLE1=Merle Haggard - Let's Chase Each Other Around The Room
TTITLE2=John Anderson - She Sure Got Away With My Heart
TTITLE3=Gary Morris - I'll Never Stop Loving You
TTITLE4=Reba McEntire - Whoever's In New England
TTITLE5=The Nitty Gritty Dirt Band - High Horse
TTITLE6=Conway Twitty - Desperado Love
TTITLE7=The Statler Brothers - Elizabeth
TTITLE8=Janie Frickie - She's Single Again
TTITLE9=David Allen Coe - Mona Lisa Lost Her Smile
TTITLE10=Crystal Gayle - Cry
TTITLE11=Dwight Yoakam - Honky Tonk Man
TTITLE12=The Judds - Have Mercy
TTITLE13=George Jones - She's My Rock
TTITLE14=The Forester Sisters - I Fell In Love Again Last Night
TTITLE15=Ronnie Milsap - She Keeps The Home Fires Burning
TTITLE16=John Schneider - You're The Last Thing I Needed Tonight
TTITLE17=Dolly Parton - Tennessee Homesick Blues
TTITLE18=Eddy Raven - I Got Mexico
TTITLE19=Alabama - If You're Gonna Play In Texas
TTITLE20=Hank Williams Jr. - All My Rowdy Friends Are Coming Over Tonight
TTITLE21=The Bellamy Brothers - Old Hippie
EXTD=added artists names\n
EXTT0=
EXTT1=
EXTT2=
EXTT3=
EXTT4=
EXTT5=
EXTT6=
EXTT7=
EXTT8=
EXTT9=
EXTT10=
EXTT11=
EXTT12=
EXTT13=
EXTT14=
EXTT15=
EXTT16=
EXTT17=
EXTT18=
EXTT19=
EXTT20=
EXTT21=
PLAYORDER=
